<?xml version="1.0" encoding="UTF-8"?>
<svg width="1200" height="800" viewBox="0 0 1200 800" xmlns="http://www.w3.org/2000/svg">
  <defs>
    <linearGradient id="bg" x1="0" y1="0" x2="1" y2="1">
      <stop offset="0%" stop-color="#0a0f1e"/>
      <stop offset="100%" stop-color="#12243e"/>
    </linearGradient>
    <linearGradient id="accent" x1="0" y1="0" x2="1" y2="1">
      <stop offset="0%" stop-color="#14a3d2"/>
      <stop offset="100%" stop-color="#7dd3fc"/>
    </linearGradient>
    <filter id="soft" x="-20%" y="-20%" width="140%" height="140%">
      <feGaussianBlur stdDeviation="12"/>
    </filter>
  </defs>
  <rect width="1200" height="800" fill="url(#bg)"/>
  <g opacity="0.35">
    <circle cx="250" cy="220" r="140" fill="#14a3d2" filter="url(#soft)"/>
    <circle cx="980" cy="600" r="180" fill="#7dd3fc" filter="url(#soft)"/>
  </g>
  <g transform="translate(200,160)">
    <rect x="0" y="0" rx="28" ry="28" width="800" height="480" fill="#0f172a" stroke="#334155" stroke-width="3"/>
    <g transform="translate(520,40)">
      <circle cx="0" cy="0" r="140" fill="#0b1220" stroke="#334155" stroke-width="3"/>
      <path d="M0,-90 A90,90 0 1,0 0,90 A90,90 0 1,0 0,-90 Z" fill="none" stroke="url(#accent)" stroke-width="10"/>
      <path d="M0,-70 A70,70 0 1,0 0,70 A70,70 0 1,0 0,-70 Z" fill="none" stroke="#1e293b" stroke-width="6"/>
      <circle cx="0" cy="0" r="10" fill="#14a3d2"/>
      <path d="M0,-120 L16,-76 L64,-70 L26,-40 L36,8 L0,-18 L-36,8 L-26,-40 L-64,-70 L-16,-76 Z" fill="#22d3ee" opacity="0.9"/>
    </g>
    <g transform="translate(60,80)">
      <rect x="0" y="0" width="380" height="260" rx="16" fill="#0b1220" stroke="#334155"/>
      <g transform="translate(24,24)" font-family="'Poppins', Arial, sans-serif">
        <text x="0" y="0" fill="#e2e8f0" font-size="28" font-weight="700">Aplicación GPS</text>
        <text x="0" y="36" fill="#94a3b8" font-size="18">Android • Java • GPS</text>
        <g transform="translate(0,72)" fill="#cbd5e1" font-size="18">
          <text y="0">• Rastreo y monitoreo en tiempo real</text>
          <text y="28">• Optimización de rutas</text>
          <text y="56">• Alertas y geocercas</text>
        </g>
      </g>
    </g>
  </g>
  <text x="600" y="760" text-anchor="middle" fill="#94a3b8" font-family="'Poppins', Arial" font-size="20">Placeholder de proyecto — Reemplazar por imagen real</text>
</svg>
