<?xml version="1.0" encoding="UTF-8"?>
<svg width="1200" height="800" viewBox="0 0 1200 800" xmlns="http://www.w3.org/2000/svg">
  <defs>
    <linearGradient id="bg" x1="0" y1="0" x2="1" y2="1">
      <stop offset="0%" stop-color="#0b1220"/>
      <stop offset="100%" stop-color="#101a33"/>
    </linearGradient>
    <linearGradient id="accent" x1="0" y1="0" x2="1" y2="1">
      <stop offset="0%" stop-color="#22d3ee"/>
      <stop offset="100%" stop-color="#60a5fa"/>
    </linearGradient>
    <filter id="blur" x="-20%" y="-20%" width="140%" height="140%">
      <feGaussianBlur stdDeviation="12"/>
    </filter>
  </defs>
  <rect width="1200" height="800" fill="url(#bg)"/>
  <g opacity="0.35">
    <circle cx="240" cy="580" r="180" fill="#22d3ee" filter="url(#blur)"/>
    <circle cx="920" cy="200" r="160" fill="#60a5fa" filter="url(#blur)"/>
  </g>
  <!-- Web app frame -->
  <g transform="translate(160,140)">
    <rect x="0" y="0" width="880" height="520" rx="24" fill="#0f172a" stroke="#334155" stroke-width="3"/>
    <rect x="0" y="0" width="880" height="56" rx="24" fill="#0b1220" stroke="#334155"/>
    <circle cx="30" cy="28" r="6" fill="#ef4444"/>
    <circle cx="50" cy="28" r="6" fill="#f59e0b"/>
    <circle cx="70" cy="28" r="6" fill="#10b981"/>
    <!-- content blocks -->
    <g transform="translate(40,96)" fill="#0b1220" stroke="#334155">
      <rect x="0" y="0" width="360" height="200" rx="14"/>
      <rect x="400" y="0" width="360" height="120" rx="14"/>
      <rect x="400" y="140" width="360" height="60" rx="10"/>
      <rect x="0" y="220" width="760" height="160" rx="14"/>
    </g>
    <g transform="translate(60,120)" font-family="'Poppins', Arial" fill="#e2e8f0">
      <text x="0" y="0" font-size="28" font-weight="700">Aplicación Web con Analytics</text>
      <text x="0" y="36" font-size="18" fill="#94a3b8">HTML • CSS • JavaScript • GA4</text>
    </g>
    <g transform="translate(420,168)" fill="url(#accent)">
      <rect x="0" y="0" width="280" height="12" rx="6"/>
      <rect x="0" y="28" width="320" height="12" rx="6" opacity="0.8"/>
      <rect x="0" y="56" width="240" height="12" rx="6" opacity="0.6"/>
    </g>
  </g>
  <text x="600" y="760" text-anchor="middle" fill="#94a3b8" font-family="'Poppins', Arial" font-size="20">Placeholder de proyecto — Reemplazar por imagen real</text>
</svg>
